<?xml version="1.0" encoding="UTF-8"?>
<svg id="Vrstva_1" xmlns="http://www.w3.org/2000/svg" version="1.1" viewBox="0 0 492.01 184.25">
  <!-- Generator: Adobe Illustrator 30.2.1, SVG Export Plug-In . SVG Version: 2.1.1 Build 1)  -->
  <defs>
    <style>
      .st0 {
        fill: #1d1d1b;
      }

      .st1 {
        fill: #00b2e3;
      }

      .st2 {
        fill: #ff8300;
      }
    </style>
  </defs>
  <polygon class="st2" points="113.39 0 113.39 .15 56.69 .15 56.69 0 0 0 0 184.25 56.69 141.73 56.69 42.67 113.39 42.67 113.39 141.73 170.08 141.73 170.08 0 113.39 0"/>
  <polygon class="st1" points="107.72 141.73 79.37 184.25 79.37 76.54 107.72 48.19 107.72 141.73"/>
  <g>
    <path class="st0" d="M193.97,44.98l6.35-1.71c.38,5.52,1.78,11.04,7.3,11.04,3.68,0,5.65-2.09,5.65-6.03,0-4.63-2.35-7.05-5.59-9.9l-8.63-7.62c-3.43-2.98-4.95-6.22-4.95-11.36,0-7.55,4.63-11.87,12.06-11.87,8.19,0,12.12,4.25,12.95,13.27l-6.09,1.65c-.38-5.08-1.52-9.39-6.86-9.39-3.55,0-5.65,1.9-5.65,5.65,0,3.11.95,4.89,3.36,6.98l8.7,7.62c3.87,3.43,7.36,8,7.36,14.41,0,7.62-5.14,12.25-12.31,12.25-8.95,0-13.14-6.09-13.65-14.98Z"/>
    <path class="st0" d="M226.79,51.14v-23.93h-3.87v-4.51h3.87v-10.73h6.79v10.73h5.9v4.51h-5.9v23.49c0,2.86.7,4,3.36,4,.63,0,1.65-.06,2.48-.19v5.01c-1.71.25-2.98.38-4.7.38-5.78,0-7.93-3.43-7.93-8.76Z"/>
    <path class="st0" d="M243.86,7.98h5.21l3.68,7.43,3.68-7.43h5.21l-5.59,10.98h-6.67l-5.52-10.98ZM244.69,22.7h6.79v5.21c2.67-4.44,5.4-5.65,8.12-5.65.32,0,.57,0,1.08.06v7.49c-1.02-.38-2.41-.76-3.75-.76-2.09,0-3.75.76-5.46,3.55v26.79h-6.79V22.7Z"/>
    <path class="st0" d="M264.17,45.24v-8.38c0-9.71,2.41-14.66,10.85-14.66,9.2,0,10.41,5.97,10.41,16v2.98h-14.47v7.36c0,4.44,1.21,6.35,4.13,6.35s3.68-2.35,3.68-6.03v-2.22h6.6v1.4c0,7.36-2.86,11.87-10.35,11.87-8.63,0-10.85-5.08-10.85-14.66ZM278.77,37.49v-3.3c0-4.51-.44-6.98-3.81-6.98s-4,1.97-4,8.32v1.97h7.81Z"/>
    <path class="st0" d="M290.89,44.98v-7.11c0-8.38,1.52-15.68,9.01-15.68,2.48,0,4.51,1.27,6.09,2.86V7.98h6.79v51.42h-6.79v-2.35c-1.59,1.71-3.49,2.86-5.9,2.86-6.22,0-9.2-4.06-9.2-14.92ZM306,53.17v-24.06c-1.21-.83-2.67-1.59-4.32-1.59-3.17,0-4,3.49-4,7.68v10.35c0,5.14.51,9.01,4.13,9.01,1.27,0,2.73-.44,4.19-1.4Z"/>
    <path class="st0" d="M319.64,22.7h6.79v3.62c2.41-2.29,5.4-4.13,8.95-4.13,4.38,0,5.52,3.94,5.52,7.49v29.71h-6.79v-27.74c0-2.6-.57-4.13-2.92-4.13-1.52,0-3.24,1.02-4.76,2.29v29.58h-6.79V22.7Z"/>
    <path class="st0" d="M347.95,22.7h6.79v36.69h-6.79V22.7ZM353.35,7.09h6.79l-7.11,12.57h-3.43l3.75-12.57Z"/>
    <path class="st0" d="M374.42,49.62l5.65-1.71c.63,4.7,2.16,6.98,5.27,6.98,2.41,0,3.75-1.52,3.75-3.87,0-2.09-.89-3.68-2.98-5.46l-6.28-5.4c-2.54-2.16-4.51-4.63-4.51-8.95,0-5.78,3.75-9.01,9.46-9.01s8.89,4.32,9.33,9.65l-4.57,1.71c-.51-3.81-1.59-6.35-4.51-6.35-2.22,0-3.62,1.71-3.62,3.75,0,1.27.51,2.48,1.84,3.68l6.47,5.97c2.6,2.41,5.21,5.21,5.21,9.9,0,6.28-4.13,9.39-10.16,9.39s-9.84-4.13-10.35-10.28ZM375.81,7.98h5.21l3.68,7.43,3.68-7.43h5.21l-5.59,10.98h-6.67l-5.52-10.98Z"/>
    <path class="st0" d="M400.12,7.91h6.79v30.66l9.9-15.87h7.11l-8.63,14.35,8.38,22.34h-6.79l-6.86-18.79-3.11,4.7v14.03h-6.79V7.91Z"/>
    <path class="st0" d="M426.59,46.38v-10.66c0-8.25,2.54-13.52,10.73-13.52s10.66,5.27,10.66,13.52v10.66c0,8.25-2.54,13.52-10.66,13.52s-10.73-5.27-10.73-13.52ZM441.19,46.82v-11.49c0-4.13,0-8.12-3.87-8.12s-3.94,4-3.94,8.12v11.49c0,4.13,0,8.06,3.94,8.06s3.87-3.94,3.87-8.06Z"/>
    <path class="st0" d="M454.83,7.98h6.79v51.42h-6.79V7.98Z"/>
    <path class="st0" d="M467.97,51.39c0-9.14,6.6-11.81,14.47-14.92v-2.6c0-4.44-.51-6.6-3.68-6.6-2.79,0-3.87,2.03-3.87,5.21v1.84l-6.73-.25c.13-8.12,3.55-11.87,11.04-11.87s10.03,4.06,10.03,11.62v16.76c0,3.43.32,6.47.63,8.82h-6.22c-.25-1.33-.7-3.68-.89-5.4-.89,2.86-3.24,5.9-7.43,5.9s-7.36-4.19-7.36-8.51ZM482.44,51.01v-10.41c-4.19,2.41-7.68,4.44-7.68,8.7,0,2.98,1.14,4.76,3.24,4.76,1.97,0,3.87-2.09,4.44-3.05Z"/>
    <path class="st0" d="M193.14,70.8h2.88v3.01h-2.88v-3.01ZM193.14,76.13h2.88v15.56h-2.88v-15.56Z"/>
    <path class="st0" d="M199.11,76.13h2.88v1.53c1.02-.97,2.29-1.75,3.8-1.75,1.86,0,2.34,1.67,2.34,3.18v12.6h-2.88v-11.76c0-1.1-.24-1.75-1.24-1.75-.65,0-1.37.43-2.02.97v12.54h-2.88v-15.56Z"/>
    <path class="st0" d="M211.84,78.26h-1.86v-2.13h1.86v-.81c0-2.88.43-4.66,3.36-4.66.73,0,1.21.05,1.88.19v2.1c-.32-.08-.75-.13-1.08-.13-1.13,0-1.29.81-1.29,2.02v1.29h2.37v2.13h-2.37v13.43h-2.88v-13.43Z"/>
    <path class="st0" d="M218.38,86.17v-4.52c0-3.5,1.08-5.73,4.55-5.73s4.52,2.23,4.52,5.73v4.52c0,3.5-1.08,5.73-4.52,5.73s-4.55-2.23-4.55-5.73ZM224.57,86.36v-4.87c0-1.75,0-3.45-1.64-3.45s-1.67,1.7-1.67,3.45v4.87c0,1.75,0,3.42,1.67,3.42s1.64-1.67,1.64-3.42Z"/>
    <path class="st0" d="M230.17,76.13h2.88v2.21c1.13-1.88,2.29-2.4,3.45-2.4.13,0,.24,0,.46.03v3.18c-.43-.16-1.02-.32-1.59-.32-.89,0-1.59.32-2.31,1.51v11.36h-2.88v-15.56Z"/>
    <path class="st0" d="M238.73,76.13h2.66v1.48c1.05-1.18,2.34-1.75,3.66-1.75,1.13,0,2.13.51,2.53,1.96,1.1-1.35,2.45-1.96,3.88-1.96,1.51,0,2.75,1.02,2.75,3.61v12.22h-2.64v-12.03c0-1.51-.54-1.91-1.35-1.91s-1.7.48-2.42,1.26v12.68h-2.64v-12.03c0-1.51-.54-1.91-1.35-1.91s-1.67.48-2.42,1.26v12.68h-2.66v-15.56Z"/>
    <path class="st0" d="M256.71,88.3c0-3.88,2.8-5.01,6.14-6.33v-1.1c0-1.88-.22-2.8-1.56-2.8-1.18,0-1.64.86-1.64,2.21v.78l-2.85-.11c.05-3.45,1.51-5.03,4.68-5.03s4.25,1.72,4.25,4.93v7.11c0,1.45.13,2.75.27,3.74h-2.64c-.11-.57-.3-1.56-.38-2.29-.38,1.21-1.37,2.5-3.15,2.5s-3.12-1.78-3.12-3.61ZM262.84,88.14v-4.41c-1.78,1.02-3.26,1.88-3.26,3.69,0,1.26.48,2.02,1.37,2.02.83,0,1.64-.89,1.88-1.29Z"/>
    <path class="st0" d="M269.06,88.19v-10.15h-1.64v-1.91h1.64v-4.55h2.88v4.55h2.5v1.91h-2.5v9.96c0,1.21.3,1.7,1.43,1.7.27,0,.7-.03,1.05-.08v2.13c-.73.11-1.27.16-1.99.16-2.45,0-3.36-1.45-3.36-3.71Z"/>
    <path class="st0" d="M276.76,70.8h2.88v3.01h-2.88v-3.01ZM276.76,76.13h2.88v15.56h-2.88v-15.56Z"/>
    <path class="st0" d="M282.79,69.86h2.88v13l4.2-6.73h3.01l-3.66,6.08,3.55,9.47h-2.88l-2.91-7.97-1.32,1.99v5.95h-2.88v-21.8Z"/>
    <path class="st0" d="M294.04,93.38c2.1,0,2.83-.24,2.83-1.16,0-.32-.3-1.59-.59-2.85l-3.12-13.24h2.91l2.1,11.63,2.02-11.63h2.91l-3.71,16.42c-.51,2.26-2.15,3.04-4.98,3.04h-.35v-2.21Z"/>
    <path class="st0" d="M310.67,88.3c0-3.88,2.8-5.01,6.14-6.33v-1.1c0-1.88-.21-2.8-1.56-2.8-1.18,0-1.64.86-1.64,2.21v.78l-2.85-.11c.05-3.45,1.51-5.03,4.68-5.03s4.25,1.72,4.25,4.93v7.11c0,1.45.13,2.75.27,3.74h-2.64c-.11-.57-.3-1.56-.38-2.29-.38,1.21-1.37,2.5-3.15,2.5s-3.12-1.78-3.12-3.61ZM316.8,88.14v-4.41c-1.78,1.02-3.26,1.88-3.26,3.69,0,1.26.48,2.02,1.37,2.02.83,0,1.64-.89,1.88-1.29Z"/>
    <path class="st0" d="M328.32,85.71v-3.58c0-3.9.78-6.22,4.55-6.22,3.39,0,4.25,1.7,4.25,4.9v.92h-2.61v-.94c0-2.02-.35-2.75-1.62-2.75-1.43,0-1.7.86-1.7,3.5v4.9c0,2.67.43,3.34,1.72,3.34,1.43,0,1.59-1.1,1.59-2.69v-1.27h2.61v1.08c0,3.15-.92,5.01-4.25,5.01-3.82,0-4.55-2.45-4.55-6.19Z"/>
    <path class="st0" d="M339.38,85.69v-3.55c0-4.12,1.02-6.22,4.6-6.22,3.9,0,4.41,2.53,4.41,6.78v1.27h-6.14v3.12c0,1.88.51,2.69,1.75,2.69s1.56-1,1.56-2.56v-.94h2.8v.59c0,3.12-1.21,5.03-4.39,5.03-3.66,0-4.6-2.15-4.6-6.22ZM345.57,82.4v-1.4c0-1.91-.19-2.96-1.62-2.96s-1.7.83-1.7,3.53v.83h3.31Z"/>
    <path class="st0" d="M350.23,87.54l2.4-.73c.27,1.99.92,2.96,2.23,2.96,1.02,0,1.59-.65,1.59-1.64,0-.89-.38-1.56-1.27-2.32l-2.66-2.29c-1.08-.92-1.91-1.97-1.91-3.8,0-2.45,1.59-3.82,4.01-3.82s3.77,1.83,3.96,4.09l-1.94.73c-.22-1.62-.67-2.69-1.91-2.69-.94,0-1.53.73-1.53,1.59,0,.54.21,1.05.78,1.56l2.75,2.53c1.1,1.02,2.21,2.21,2.21,4.2,0,2.67-1.75,3.98-4.31,3.98s-4.17-1.75-4.39-4.36Z"/>
    <path class="st0" d="M361.86,88.19v-10.15h-1.64v-1.91h1.64v-4.55h2.88v4.55h2.5v1.91h-2.5v9.96c0,1.21.3,1.7,1.43,1.7.27,0,.7-.03,1.05-.08v2.13c-.73.11-1.26.16-1.99.16-2.45,0-3.37-1.45-3.37-3.71Z"/>
    <path class="st0" d="M369.1,86.17v-4.52c0-3.5,1.08-5.73,4.55-5.73s4.52,2.23,4.52,5.73v4.52c0,3.5-1.08,5.73-4.52,5.73s-4.55-2.23-4.55-5.73ZM375.29,86.36v-4.87c0-1.75,0-3.45-1.64-3.45s-1.67,1.7-1.67,3.45v4.87c0,1.75,0,3.42,1.67,3.42s1.64-1.67,1.64-3.42Z"/>
    <path class="st0" d="M379.75,76.13h2.91l1.91,12.52,1.94-12.52h2.8l-2.96,15.56h-3.53l-3.07-15.56Z"/>
    <path class="st0" d="M391.16,76.13h2.88v1.53c1.02-.97,2.29-1.75,3.79-1.75,1.86,0,2.34,1.67,2.34,3.18v12.6h-2.88v-11.76c0-1.1-.24-1.75-1.24-1.75-.65,0-1.37.43-2.02.97v12.54h-2.88v-15.56Z"/>
    <path class="st0" d="M403.17,76.13h2.88v15.56h-2.88v-15.56ZM405.46,69.51h2.88l-3.01,5.33h-1.45l1.59-5.33Z"/>
    <path class="st0" d="M409.09,69.89h2.88v7.86c1.05-1,2.32-1.83,3.9-1.83,1.83,0,2.31,1.67,2.31,3.18v12.6h-2.88v-11.76c0-1.1-.24-1.75-1.24-1.75-.67,0-1.45.46-2.1,1.02v12.49h-2.88v-21.8Z"/>
    <path class="st0" d="M420.72,86.17v-4.52c0-3.5,1.08-5.73,4.55-5.73s4.52,2.23,4.52,5.73v4.52c0,3.5-1.08,5.73-4.52,5.73s-4.55-2.23-4.55-5.73ZM426.91,86.36v-4.87c0-1.75,0-3.45-1.64-3.45s-1.67,1.7-1.67,3.45v4.87c0,1.75,0,3.42,1.67,3.42s1.64-1.67,1.64-3.42Z"/>
    <path class="st0" d="M438.67,76.13h2.88v2.21c1.13-1.88,2.29-2.4,3.45-2.4.13,0,.24,0,.46.03v3.18c-.43-.16-1.02-.32-1.59-.32-.89,0-1.59.32-2.32,1.51v11.36h-2.88v-15.56Z"/>
    <path class="st0" d="M447.12,88.73v-12.6h2.88v11.74c0,1.1.24,1.78,1.24,1.78.65,0,1.37-.43,2.02-.97v-12.54h2.88v15.56h-2.88v-1.53c-1.02.97-2.29,1.75-3.79,1.75-1.86,0-2.34-1.67-2.34-3.18Z"/>
    <path class="st0" d="M458.77,85.71v-3.58c0-3.9.78-6.22,4.55-6.22,3.39,0,4.25,1.7,4.25,4.9v.92h-2.61v-.94c0-2.02-.35-2.75-1.62-2.75-1.43,0-1.7.86-1.7,3.5v4.9c0,2.67.43,3.34,1.72,3.34,1.43,0,1.59-1.1,1.59-2.69v-1.27h2.61v1.08c0,3.15-.92,5.01-4.25,5.01-3.82,0-4.55-2.45-4.55-6.19Z"/>
    <path class="st0" d="M470.21,69.89h2.88v7.86c1.05-1,2.32-1.83,3.9-1.83,1.83,0,2.31,1.67,2.31,3.18v12.6h-2.88v-11.76c0-1.1-.24-1.75-1.24-1.75-.67,0-1.45.46-2.1,1.02v12.49h-2.88v-21.8Z"/>
    <path class="st0" d="M482,88.73v-12.6h2.88v11.74c0,1.1.24,1.78,1.24,1.78.65,0,1.37-.43,2.02-.97v-12.54h2.88v15.56h-2.88v-1.53c-1.02.97-2.29,1.75-3.79,1.75-1.86,0-2.34-1.67-2.34-3.18Z"/>
    <path class="st0" d="M192.76,123.11l3.23-.87c.19,2.81.9,5.62,3.71,5.62,1.87,0,2.88-1.07,2.88-3.07,0-2.36-1.2-3.58-2.84-5.04l-4.39-3.88c-1.74-1.52-2.52-3.17-2.52-5.78,0-3.84,2.36-6.04,6.14-6.04,4.17,0,6.17,2.16,6.59,6.75l-3.1.84c-.19-2.58-.78-4.78-3.49-4.78-1.81,0-2.88.97-2.88,2.88,0,1.58.48,2.49,1.71,3.55l4.43,3.88c1.97,1.74,3.75,4.07,3.75,7.33,0,3.88-2.62,6.23-6.27,6.23-4.55,0-6.69-3.1-6.95-7.62Z"/>
    <path class="st0" d="M208.32,122.04v-9.24c0-5.3,1.49-8.75,7.04-8.75,4.88,0,6.59,2.81,6.59,7.53v2.07h-3.46v-1.84c0-2.91-.06-4.91-3.1-4.91s-3.39,2.13-3.39,5.36v10.37c0,3.94.87,5.23,3.39,5.23,2.94,0,3.1-2.1,3.1-5.2v-1.94h3.46v1.94c0,4.81-1.45,8.08-6.59,8.08-5.56,0-7.04-3.81-7.04-8.69ZM210.58,96.78h2.65l1.87,3.78,1.87-3.78h2.65l-2.84,5.59h-3.39l-2.81-5.59Z"/>
    <path class="st0" d="M225.86,104.28h3.59l4.62,21.22,4.65-21.22h3.55l.48,26.17h-2.94l-.29-18.99-4.43,18.99h-2.07l-4.39-18.99-.29,18.99h-2.97l.48-26.17Z"/>
    <path class="st0" d="M245.98,123.11l3.23-.87c.19,2.81.9,5.62,3.71,5.62,1.87,0,2.87-1.07,2.87-3.07,0-2.36-1.2-3.58-2.84-5.04l-4.39-3.88c-1.74-1.52-2.52-3.17-2.52-5.78,0-3.84,2.36-6.04,6.14-6.04,4.17,0,6.17,2.16,6.59,6.75l-3.1.84c-.19-2.58-.78-4.78-3.49-4.78-1.81,0-2.88.97-2.88,2.88,0,1.58.48,2.49,1.71,3.55l4.43,3.88c1.97,1.74,3.75,4.07,3.75,7.33,0,3.88-2.62,6.23-6.27,6.23-4.55,0-6.69-3.1-6.95-7.62Z"/>
    <path class="st0" d="M262.03,104.28h5.69c5.81,0,7.75,2.68,7.75,7.98v9.63c0,5.56-1.97,8.56-7.46,8.56h-5.98v-26.17ZM267.75,127.83c3.97,0,4.04-2.39,4.04-6.62v-8.5c0-4.04-.39-5.72-4.13-5.72h-1.97v20.84h2.07Z"/>
    <path class="st0" d="M286.45,104.28h3.65v11.31h6.72v-11.31h3.65v26.17h-3.65v-12.24h-6.72v12.24h-3.65v-26.17Z"/>
    <path class="st0" d="M304.34,121.62v-17.35h3.49v17.51c0,3.39.42,6.07,3.49,6.07s3.49-2.68,3.49-6.07v-17.51h3.46v17.35c0,5.49-1.26,9.11-6.94,9.11s-6.98-3.62-6.98-9.11Z"/>
    <path class="st0" d="M322.52,104.28h3.59l4.62,21.22,4.65-21.22h3.55l.48,26.17h-2.94l-.29-18.99-4.42,18.99h-2.07l-4.39-18.99-.29,18.99h-2.97l.48-26.17Z"/>
    <path class="st0" d="M343.42,104.28h6.49c4.68,0,6.46,2.68,6.46,7.24,0,4.17-2.17,6.75-6.43,6.75h-2.88v12.18h-3.65v-26.17ZM348.75,115.65c3.13,0,4.17-.87,4.17-4.1,0-3.71-.48-4.65-4.13-4.65h-1.71v8.75h1.68Z"/>
    <path class="st0" d="M358.43,122.24v-9.92c0-5.17,1.87-8.27,7.17-8.27s7.14,3.13,7.14,8.27v9.95c0,5.14-1.87,8.46-7.14,8.46s-7.17-3.29-7.17-8.5ZM369.06,123.05v-11.47c0-2.91-.55-4.68-3.46-4.68s-3.49,1.78-3.49,4.68v11.47c0,2.91.55,4.81,3.49,4.81s3.46-1.91,3.46-4.81Z"/>
    <path class="st0" d="M376.33,104.28h3.65v23.55h6.69v2.62h-10.34v-26.17Z"/>
    <path class="st0" d="M389.15,104.28h10.14v2.71h-6.49v8.66h5.27v2.58h-5.27v9.59h6.56v2.62h-10.21v-26.17Z"/>
    <path class="st0" d="M401.81,122.04v-9.24c0-5.3,1.49-8.75,7.04-8.75,4.88,0,6.59,2.81,6.59,7.53v2.07h-3.46v-1.84c0-2.91-.06-4.91-3.1-4.91s-3.39,2.13-3.39,5.36v10.37c0,3.94.87,5.23,3.39,5.23,2.94,0,3.1-2.1,3.1-5.2v-1.94h3.46v1.94c0,4.81-1.45,8.08-6.59,8.08-5.56,0-7.04-3.81-7.04-8.69Z"/>
    <path class="st0" d="M418.18,133.19c1.16-.39,1.87-1.42,1.87-2.75h-1.84v-3.71h3.55v3.65c0,2.29-.97,3.59-3.04,4.3l-.55-1.49Z"/>
    <path class="st0" d="M431.13,125.47l2.88-.87c.32,2.39,1.1,3.55,2.68,3.55,1.23,0,1.91-.77,1.91-1.97,0-1.07-.45-1.87-1.52-2.78l-3.2-2.75c-1.29-1.1-2.29-2.36-2.29-4.55,0-2.94,1.91-4.59,4.81-4.59s4.52,2.2,4.75,4.91l-2.33.87c-.26-1.94-.81-3.23-2.29-3.23-1.13,0-1.84.87-1.84,1.91,0,.65.26,1.26.94,1.87l3.29,3.04c1.32,1.23,2.65,2.65,2.65,5.04,0,3.2-2.1,4.78-5.17,4.78s-5.01-2.1-5.27-5.23Z"/>
    <path class="st0" d="M443.99,126.6h3.46v3.84h-3.46v-3.84Z"/>
    <path class="st0" d="M457.71,111.77h3.46v2.65c1.36-2.26,2.75-2.88,4.13-2.88.16,0,.29,0,.55.03v3.81c-.52-.19-1.23-.39-1.91-.39-1.07,0-1.91.39-2.78,1.81v13.63h-3.46v-18.67Z"/>
    <path class="st0" d="M467.82,126.6h3.46v3.84h-3.46v-3.84Z"/>
    <path class="st0" d="M481.12,123.82v-5.43c0-4.2,1.29-6.88,5.46-6.88s5.43,2.68,5.43,6.88v5.43c0,4.2-1.29,6.88-5.43,6.88s-5.46-2.68-5.46-6.88ZM488.55,124.05v-5.85c0-2.1,0-4.13-1.97-4.13s-2,2.04-2,4.13v5.85c0,2.1,0,4.1,2,4.1s1.97-2,1.97-4.1Z"/>
  </g>
</svg>